<svg xmlns="http://www.w3.org/2000/svg" version="1.1" xmlns:xlink="http://www.w3.org/1999/xlink" xmlns:svgjs="http://svgjs.dev/svgjs" width="1000" height="1000" viewBox="0 0 1000 1000"><rect width="1000" height="1000" fill="#ffffff"></rect><g transform="matrix(0.7,0,0,0.7,149.81111111111113,238.1611425531916)"><svg viewBox="0 0 189 141" data-background-color="#ffffff" preserveAspectRatio="xMidYMid meet" height="746" width="1000" xmlns="http://www.w3.org/2000/svg" xmlns:xlink="http://www.w3.org/1999/xlink"><defs></defs><g id="tight-bounds" transform="matrix(1,0,0,1,0.05099999999998772,0.19949999999997203)"><svg viewBox="0 0 188.8976389427313 140.60052000000002" height="140.60052000000002" width="188.8976389427313"><g><svg viewBox="0 0 188.8976389427313 140.60052000000002" height="140.60052000000002" width="188.8976389427313"><g><svg viewBox="0 0 188.8976389427313 140.60052000000002" height="140.60052000000002" width="188.8976389427313"><g><path d="M0 140.601v-140.601h188.898v140.601z" fill="#ecab55" stroke="transparent" stroke-width="0" rx="0%" data-fill-palette-color="tertiary"></path><path d="M3.283 137.317v-134.034h182.331v134.034z" fill="#ffffff" stroke="transparent" stroke-width="0" rx="0%" data-fill-palette-color="quaternary"></path><path d="M9.85 130.751v-120.901h169.198v120.901z" fill="#ecab55" stroke="transparent" stroke-width="0" data-fill-palette-color="tertiary"></path></g><g transform="matrix(1,0,0,1,19.69974,19.69974)"><svg viewBox="0 0 149.49815894273132 101.20104000000002" height="101.20104000000002" width="149.49815894273132"><g><svg viewBox="0 0 149.49815894273132 101.20104000000002" height="101.20104000000002" width="149.49815894273132"><g transform="matrix(1,0,0,1,0,0)"><svg width="149.49815894273132" viewBox="1.6500000953674316 -33.75 50.29999923706055 34.04999923706055" height="101.20104000000002" data-palette-color="#ffffff"><path d="M17-1.2L17 0 1.65 0 1.65-1.2 6-1.65 6-31.75 1.65-32.2 1.65-33.4 17-33.4 17-32.2 12.65-31.75 12.65-1.65 17-1.2ZM40.1-33.75L40.1-33.75 51.1-33.3 51.4-24.2 49.6-24.2 47.9-30.75Q44.45-31.9 41.25-31.9L41.25-31.9Q35.3-31.9 31.6-27.98 27.9-24.05 27.9-16.38 27.9-8.7 31.5-5.1 35.1-1.5 40.57-1.5 46.05-1.5 48.5-2.7L48.5-2.7 50.35-8.4 51.95-8.4 51.65-1.05Q45.4 0.3 40.72 0.3 36.05 0.3 32.75-0.48 29.45-1.25 26.55-3 23.65-4.75 22.02-8.05 20.4-11.35 20.4-15.95 20.4-20.55 22.07-24.08 23.75-27.6 26.6-29.65L26.6-29.65Q32.3-33.75 40.1-33.75Z" opacity="1" transform="matrix(1,0,0,1,0,0)" fill="#ffffff" class="undefined-text-0" data-fill-palette-color="quaternary" id="text-0"></path></svg></g></svg></g></svg></g></svg></g><g></g></svg></g></svg><rect width="188.8976389427313" height="140.60052000000002" fill="none" stroke="none" visibility="hidden"></rect></g></svg></g></svg>